<?xml version="1.0" standalone="no"?>
<!DOCTYPE svg PUBLIC "-//W3C//DTD SVG 1.1//EN" "http://www.w3.org/Graphics/SVG/1.1/DTD/svg11.dtd" >
<svg xmlns="http://www.w3.org/2000/svg" xmlns:xlink="http://www.w3.org/1999/xlink" version="1.1">
<metadata>
Created by FontForge 20141024 at Mon May  4 09:12:18 2015
 By System Administrator
(c) vallex
</metadata>
<defs>
<font id="ObelixPro-Bold" horiz-adv-x="530" >
  <font-face 
    font-family="ObelixPro"
    font-weight="700"
    font-stretch="normal"
    units-per-em="630"
    panose-1="2 0 0 0 0 0 0 0 0 0"
    ascent="504"
    descent="-126"
    x-height="654"
    cap-height="655"
    bbox="-50 -241 1058 870"
    underline-thickness="182"
    underline-position="72"
    unicode-range="U+0020-2212"
  />
<missing-glyph horiz-adv-x="488" 
 />
    <glyph glyph-name=".notdef" horiz-adv-x="488" 
 />
    <glyph glyph-name="exclam" unicode="!" horiz-adv-x="261" 
d="M96 -9q-19 4 -35.5 13.5t-28 24.5t-15 31.5t0.5 33.5q3 20 16 33t29 23t38 14t39 2q25 -4 41 -15.5t26.5 -24.5t15.5 -30.5t-1 -34.5q-5 -17 -16 -32t-28.5 -24.5t-38.5 -14.5t-43 1zM56 226q1 -2 -3 209q0 98 -1 225l216 -12l-70 -431q-144 9 -142 9z" />
    <glyph glyph-name="quotedbl" unicode="&#x22;" horiz-adv-x="323" 
d="M145 691q-20 -141 -3 -243l-121 -44l-12 250zM320 683q-33 -140 -28 -243l-123 -28l12 252z" />
    <glyph glyph-name="space" unicode=" " horiz-adv-x="220" 
 />
    <glyph glyph-name="space" unicode="&#xa0;" horiz-adv-x="220" 
 />
    <glyph glyph-name="numbersign" unicode="#" horiz-adv-x="748" 
d="M155 577l176 24q-8 -74 -14 -148l99 4v120l175 24q-8 -69 -14 -138l137 8l1 -114q-23 -1 -72 -1.5t-71 -3.5q-4 -32 -1 -64l131 7l9 -114q-45 -2 -140 -4q1 -26 2 -50l5 -49l-160 -33v126q-36 -1 -105 -5q0 -44 4 -88l-161 -33v111q-25 -1 -46 -3l-53 -3l-39 114l138 5
v63q-46 -1 -99 -7l-30 115l128 9v128zM310 341q0 -21 -3 -64l109 4l2 65q-37 -1 -108 -5z" />
    <glyph glyph-name="dollar" unicode="$" horiz-adv-x="552" 
d="M236 720h69l8 -5l-1 -14v-32l4 -3h33q91 -6 102 -11l35 -9q34 -10 34 -17v-1l-8 -16l-8 -25l-25 -66l-21 -50h-1q-8 0 -26 9l-27 7q-21 9 -79 12l-20 2v-7v-110l5 -5h13l38 -7q34 -6 71 -23q31 -9 70 -43q21 -27 21 -32q5 0 6 -18q5 0 10 -23v-38q-10 -42 -35 -77
q0 -4 -35 -35q-20 -20 -41 -30q-32 -18 -62 -29q0 -3 -24 -7q0 -2 -24 -8q-2 -3 -21 -5v-38l-6 -7h-61q-11 0 -12 5v24l-5 5h-10q-71 5 -103 11q-11 0 -30 10q-52 11 -65 26v2l9 50q4 0 5 43q5 4 9 49h7q6 0 44 -28l21 -6q13 -10 25 -10q0 -5 68 -10q26 0 26 7l-1 3l1 57v66
q-9 6 -42 11q0 3 -22 8l-20 9q-2 5 -13 5q0 4 -15 8l-36 23q-23 18 -31 36q-21 22 -31 65v43q0 13 9 33q10 37 56 76q26 22 77 49q48 17 52 17q10 0 24 11l-1 13v37q0 13 10 13zM139 458q0 -19 36 -40q5 0 18 -7q7 0 15 -5h4l1 87l4 10q-18 -6 -35 -7q-2 -3 -22 -11
q-21 -14 -21 -27zM302 231l-4 -112h1q29 6 47 14q9 0 18 7q13 0 28 28v24q-18 23 -49 31q0 5 -24 8l-7 4h-7q-3 0 -3 -4z" />
    <glyph glyph-name="uni0025" unicode="%" horiz-adv-x="615" 
d="M209 666q52 -12 59 -22q25 -7 45 -52l4 -24q0 -66 -57 -115q-41 -34 -72 -38q0 -4 -59 -9h-2q-52 0 -77 20q-30 15 -43 44l-6 22v37q7 34 23 57q6 14 51 49q37 24 82 31h52zM454 666l15 -11q0 -2 10 -2q13 -12 62 -32v-4q0 -3 -20 -31l-57 -87q-3 0 -7 -14q-5 -1 -8 -14
l-66 -98q-83 -125 -192 -263q-64 -80 -112 -127q-15 2 -78 62v1q27 22 72 81q48 57 136 185l59 85q90 126 180 267zM117 524q0 -22 19 -29l6 -2h15q20 0 39 27l4 24v6q0 19 -22 27h-21q-30 -11 -30 -24q-10 0 -10 -29zM464 306q74 0 109 -58q7 -5 17 -39v-55q-8 -42 -25 -76
q-36 -62 -97 -85q-37 -11 -48 -11h-9q-49 0 -87 38q-14 20 -22 43q0 6 -7 26v2h2l-2 19v12q8 49 12 54q12 44 61 92q51 37 83 37zM400 132q2 -32 12 -32q0 -8 14 -8h11q14 0 35 30l10 32v2q0 28 -31 34h-11q-20 -9 -29 -25q-8 -9 -11 -33z" />
    <glyph glyph-name="ampersand" unicode="&#x26;" horiz-adv-x="642" 
d="M238 591h36l40 -6q64 -17 99 -59q24 -25 24 -42q1 0 4 -20q0 -11 -6 -49q-4 0 -8 -18q-2 0 -16 -16q-38 -37 -51 -42q-15 -11 -20 -11q0 -3 -8 -5v-3l65 -51q22 -13 29 -13q24 30 28 44q9 11 15 33q3 0 7 16l1 1h3q19 -11 27 -12q0 -4 40 -18l35 -13l2 -4l-14 -35
q-2 0 -5 -10q-3 -2 -8 -13l-35 -49q0 -4 26 -14q23 -14 60 -28q13 -4 20 -11v-1q-14 -25 -40 -57q-23 -32 -41 -48l-6 -2l-43 18l-67 38l-54 -32l-32 -12l-13 -5l-22 -7l-36 -9l-52 -2q-56 2 -77 11q-39 11 -55 22q-24 10 -50 56q-10 16 -16 50v11q0 25 6 41q7 17 22 39
q9 14 29 32q34 32 63 47v2l-15 27q-28 50 -31 77q-2 0 -4 11h-1l1 6v12q8 39 15 39q0 12 33 46q31 21 56 30q1 2 40 8zM243 484h-5q-21 -12 -21 -26q0 -30 20 -46q8 -10 15 -15q26 0 58 38l4 12v9q-7 4 -7 14q-17 16 -46 16zM167 201v-23q0 -11 15 -24q21 -12 41 -14h1
q52 6 62 14q7 0 28 12v4q-11 0 -100 81h-3q-33 -25 -41 -43q-3 0 -3 -7z" />
    <glyph glyph-name="quotesingle" unicode="'" horiz-adv-x="288" 
d="M183 687l-130 -148l-76 34l94 153z" />
    <glyph glyph-name="parenleft" unicode="(" horiz-adv-x="305" 
d="M238 721q-124 -376 -3 -792l-69 -37q-305 437 -4 854z" />
    <glyph glyph-name="parenright" unicode=")" horiz-adv-x="293" 
d="M142 746q304 -417 -4 -854l-70 37q123 416 -2 792z" />
    <glyph glyph-name="asterisk" unicode="*" horiz-adv-x="419" 
d="M394 550q-52 -29 -107 -58l83 -55l-75 -72q-12 5 -58 38q-3 -35 -5 -70l-107 -16l14 89q-12 -9 -39.5 -24t-38.5 -22l-54 68l104 56q-40 23 -84 49l64 83l75 -47l13 82l98 1l-9 -40q-2 -22 -4 -42l96 55z" />
    <glyph glyph-name="plus" unicode="+" horiz-adv-x="493" 
d="M459 228q-66 -5 -132 -11q1 -40 13 -103l-160 -22v109q-48 -4 -112 -13l-42 131l145 14l-19 118l174 10q-14 -88 -16 -120l126 17z" />
    <glyph glyph-name="comma" unicode="," horiz-adv-x="228" 
d="M223 133q-76 -114 -107 -205h-152l76 212z" />
    <glyph glyph-name="hyphen" unicode="-" horiz-adv-x="311" 
d="M277 233q-138 5 -239 -6l-12 147l255 3z" />
    <glyph glyph-name="hyphen" unicode="&#xad;" horiz-adv-x="311" 
d="M277 233q-138 5 -239 -6l-12 147l255 3z" />
    <glyph glyph-name="period" unicode="." horiz-adv-x="246" 
d="M87 -9q-20 4 -38 13.5t-27 24.5t-14 31.5t-1 33.5q6 20 18.5 33t28 23t37.5 14t40 2q23 -4 40 -15.5t27 -24.5t14.5 -30.5t-1.5 -34.5q-4 -17 -15.5 -32t-28.5 -24.5t-37.5 -14.5t-42.5 1z" />
    <glyph glyph-name="slash" unicode="/" horiz-adv-x="658" 
d="M492 643l190 -41q-320 -348 -519 -625l-184 23z" />
    <glyph glyph-name="zero" unicode="0" horiz-adv-x="600" 
d="M341 675q128 0 208 -104q40 -51 56 -115q16 -61 7 -131q-17 -121 -101 -220q-103 -124 -252 -124q-130 0 -208 101q-37 48 -52 111q-17 61 -7 132q14 124 96 225q103 125 253 125zM331 493q-67 0 -117 -79q-38 -62 -46 -118q-3 -32 2 -58q9 -36 38 -57q34 -25 84 -25
q69 0 110 49q33 42 39 99q7 64 -23 127q-30 62 -87 62z" />
    <glyph glyph-name="one" unicode="1" horiz-adv-x="412" 
d="M391 636q-42 -336 -13 -597l-194 -40l-3 447l-154 -18l-8 163z" />
    <glyph glyph-name="two" unicode="2" horiz-adv-x="582" 
d="M38 396q8 193 151 241q41 14 83 14q92 0 175 -45q105 -58 124 -141q19 -75 -54 -147q-56 -54 -180 -98q-94 -32 -114 -64l310 14l15 -161l-524 -21q-6 20 -10 37q-21 87 10 148q40 74 222 150q98 42 110 82q5 22 0 37q-5 17 -21.5 30.5t-41.5 13.5q-52 0 -41 -59z" />
    <glyph glyph-name="three" unicode="3" horiz-adv-x="567" 
d="M484 449q-77 0 -181 -76q231 -25 257 -127q20 -87 -106 -175.5t-259 -79.5q-156 9 -207 161l217 23q-2 -9 -1 -19q4 -14 26 -14q7 0 18 2q51 11 71 37q8 10 6 19q-9 39 -127 39q-64 0 -169 -9l9 143q95 53 184 102q-101 -7 -200 -17l-24 165l479 19q0 -64 7 -193z" />
    <glyph glyph-name="four" unicode="4" horiz-adv-x="550" 
d="M299 556l197 24q-18 -172 -21 -273l54 4l19 -162h-39q-22 -2 -33 -2q0 -58 8 -116l-182 -32l-2 143q-116 -6 -234 -15l-65 73l60 416l219 25q-52 -186 -83 -344l103 4z" />
    <glyph glyph-name="five" unicode="5" horiz-adv-x="543" 
d="M476 484q-131 -5 -272 -9q-1 -16 -2 -40q282 -4 321 -122q21 -53 -16 -116q-24 -52 -78 -97q-117 -99 -237 -99q-80 0 -135 60q-32 31 -44 91q-10 35 -13 76l215 -13q-3 -18 0 -29q4 -17 23 -17q6 0 13 1q46 11 67 43q9 19 5 32q-4 18 -22 32q-28 24 -122 24
q-43 0 -96 -4l-73 -14q-1 129 10 340l440 20z" />
    <glyph glyph-name="six" unicode="6" horiz-adv-x="578" 
d="M325 651q125 0 208 -96l-112 -128q-16 12 -31 25q-20 13 -38 13q-74 0 -126 -105q70 17 135 17q54 0 110 -14q89 -24 105 -88q3 -17 2 -38q-10 -84 -93 -155q-89 -80 -205 -80q-124 0 -206 94q-46 56 -61 126q-13 48 -10 104q6 115 83 211q95 114 239 114zM349 151
q60 19 53 47q-3 13 -17.5 25.5t-34.5 12.5q7 0 -80 -14q-33 -8 -66 -17q30 -65 93 -65q22 0 52 11z" />
    <glyph glyph-name="seven" unicode="7" horiz-adv-x="448" 
d="M458 654l-197 -639l-193 -16l132 463l-213 -11l10 163z" />
    <glyph glyph-name="eight" unicode="8" horiz-adv-x="636" 
d="M505 379q118 -42 138 -130q4 -16 3 -38q-4 -87 -104 -154q-96 -61 -226 -69q-136 -6 -227 51q-68 38 -81 96q-17 75 43 144q38 49 111 82q-83 32 -97 90q-3 13 -3 32q4 72 93 124q83 47 190 52q112 5 192 -38q60 -34 73 -82q3 -15 2 -30q-4 -75 -107 -130zM332 501
q-33 -1 -60.5 -19.5t-22.5 -41.5q9 -37 78 -34q36 2 62 18.5t22 39.5q-6 20 -30 29.5t-49 7.5zM333 283q-53 -3 -91 -27q-43 -28 -33 -65q6 -29 45 -44q33 -13 72 -11q55 2 93 30q41 29 33 66q-6 26 -42 40t-77 11z" />
    <glyph glyph-name="nine" unicode="9" horiz-adv-x="628" 
d="M299 239q-137 -5 -228 49q-66 40 -80 99q-6 20 -5 42q5 90 104 154q100 62 228 69q133 7 225 -47q70 -42 85 -102q14 -61 -27 -120q-101 -208 -153 -377l-195 23l90 215q-11 -3 -44 -5zM302 355q41 2 74 23t26 52q-7 22 -35 33.5t-62 10.5q-41 -4 -71 -24
q-37 -22 -31 -54q7 -22 38 -32q26 -13 61 -9z" />
    <glyph glyph-name="colon" unicode=":" horiz-adv-x="251" 
d="M100 110q-21 4 -37.5 13t-28 24t-15 32.5t-0.5 34.5q4 20 17 33t29.5 22t38 13.5t39.5 0.5q24 -4 40 -14t26.5 -23t16 -31t-1.5 -35q-5 -18 -16 -33t-28.5 -24t-38 -13t-41.5 0zM100 333q-21 5 -37.5 14.5t-28 24t-15 31.5t-0.5 36q4 17 17 31t29.5 23.5t38 13.5t39.5 1
q24 -4 40 -14t26.5 -24.5t16 -31.5t-1.5 -34q-5 -18 -16 -32.5t-28.5 -24t-38 -14.5t-41.5 0z" />
    <glyph glyph-name="semicolon" unicode=";" horiz-adv-x="268" 
d="M235 215q-73 -143 -108 -259l-143 -1l70 272zM127 333q-20 5 -39 14.5t-29.5 24t-15 31.5t1.5 36q3 17 15.5 31t30.5 23.5t39.5 13.5t43.5 1q23 -4 41 -14t28.5 -24.5t15.5 -31.5t-1 -34q-5 -18 -16.5 -32.5t-30 -24t-40.5 -14.5t-44 0z" />
    <glyph glyph-name="equal" unicode="=" horiz-adv-x="455" 
d="M429 327q-215 -11 -375 -34l-40 130l391 34zM442 138q-190 -8 -372 -33l-45 131l391 33z" />
    <glyph glyph-name="question" unicode="?" horiz-adv-x="423" 
d="M191 277l-10 -64l-133 7l-5 148q171 39 183.5 104.5t-185.5 54.5l20 144q142 -7 236 -42q121 -45 112 -134q-14 -114 -140 -184q-30 -16 -78 -34zM91 -9q-19 4 -35 13.5t-27 24.5t-16 31.5t1 33.5q4 20 16.5 33t28 23t37.5 14t40 2q24 -4 40.5 -15.5t26.5 -24.5t15 -30.5
t-1 -34.5q-5 -17 -16 -32t-28.5 -24.5t-38 -14.5t-43.5 1z" />
    <glyph glyph-name="at" unicode="@" horiz-adv-x="866" 
d="M448 479q36 7 74 0l1 5q20 2 35 2q10 0 31 -1.5t31 -1.5q17 0 38 3q-21 -92 -35 -172l-37 -171q106 90 133 166q16 41 16 76q0 94 -99 147q-79 46 -175 46q-156 0 -241 -99q-65 -76 -65 -196q0 -85 42 -198l-169 -103q-30 135 -30 245q0 170 73 293q66 106 181 161
q103 51 223 51q148 0 261 -69q144 -85 144 -222q0 -100 -86 -249q-72 -124 -241 -204l-91 77l14 80q-67 -42 -138 -42q-50 0 -84 28q-42 34 -42 89q0 93 87 175q67 66 149 84zM409 300q-23 -5 -46 -28.5t-23 -48.5q0 -35 37 -35q30 0 57 25q19 20 24 43q3 22 -12 35t-37 9z
" />
    <glyph glyph-name="A" unicode="A" horiz-adv-x="553" 
d="M-14 37q103 298 156 593l260 34q47 -267 165 -614l-197 -41l-28 109l-129 -12l-22 -110zM317 234l-49 230l-40 -231z" />
    <glyph glyph-name="B" unicode="B" horiz-adv-x="537" 
d="M24 346q-10 247 -14 269q82 32 187 33q107 2 177 -35q74 -41 79 -106q6 -73 -82 -140q105 -12 148 -97q20 -36 13 -77q-7 -44 -44 -80q-79 -82 -210 -100q-92 -15 -247 -3q6 158 -7 336zM190 153q51 -3 85 6q49 12 58 45q12 45 -40 63q-49 15 -107 -1zM175 405
q82 15 101 49q35 63 -41 69q-33 3 -70 -6z" />
    <glyph glyph-name="C" unicode="C" horiz-adv-x="464" 
d="M43 159q-45 84 -44 179q2 89 41 165q38 80 100 122q70 45 153 35q90 -10 183 -90l-48 -58l-51 -60q-96 56 -151 7q-50 -41 -47 -128q2 -87 54 -128q57 -47 146 12l95 -107q-75 -89 -164 -104q-77 -13 -155 33q-69 41 -112 122z" />
    <glyph glyph-name="D" unicode="D" horiz-adv-x="544" 
d="M18 626q132 22 228 15q111 -9 175 -54q96 -67 116 -151q7 -32 5 -65q-5 -71 -40 -132q-41 -68 -119 -123q-45 -32 -100 -54q-112 -48 -257 -52h-2l-4 512q-2 92 -2 104zM204 323q-1 -68 3 -127q74 26 116 80q39 53 32 108q-10 48 -50 71q-37 21 -92 19q-8 -88 -9 -151z
" />
    <glyph glyph-name="E" unicode="E" horiz-adv-x="459" 
d="M322 495q-55 -7 -103 -11q-5 -30 -6 -44l-2 -43l84 12l80 12l7 -59l8 -61q-78 -11 -103 -15q-42 -7 -76 -12l-2 -81l110 14l110 15l11 -82l11 -79q-84 -5 -191 -19q-107 -17 -235 -41q-1 52 -2 154l-3 156q-2 205 -2 310l194 20l196 22l12 -80l13 -81q-58 -3 -111 -7z
" />
    <glyph glyph-name="F" unicode="F" horiz-adv-x="446" 
d="M207 479l-4 -93l209 32l20 -119q-122 -17 -229 -33q0 -116 11 -227l-196 -40l-11 618l402 41l27 -159q-120 -6 -229 -20z" />
    <glyph glyph-name="G" unicode="G" horiz-adv-x="625" 
d="M152 19q-51 26 -90 72q-18 26 -34 53q-10 29 -20 57q-6 31 -7 62q-1 33 2 65q7 59 32 113q25 55 66 105q50 59 111 88q62 30 136 30q64 0 115 -26q54 -24 93 -75l-54 -51l-54 -53q-56 58 -126 37q-63 -19 -110 -89q-55 -80 -37 -166q7 -45 37 -71q36 -30 97 -26
q52 2 88 32q39 27 53 73q-39 -5 -88 -14q-35 -5 -85 -17l3 63l6 64l165 26l165 23q9 -27 7 -60q0 -31 -8 -68q-9 -32 -23 -62q-13 -28 -31 -54q-50 -78 -124 -115q-73 -39 -170 -39q-64 0 -115 23z" />
    <glyph glyph-name="H" unicode="H" 
d="M231 652q-22 -172 -26 -294l98 14l-1 252l216 28q-40 -360 -14 -611l-200 -41l-1 241q-35 -6 -101 -15q5 -110 13 -185l-197 -41l-3 624z" />
    <glyph glyph-name="I" unicode="I" horiz-adv-x="255" 
d="M28 623l102 13l101 15q-21 -174 -26 -325q-3 -149 8 -275l-90 -22l-94 -16z" />
    <glyph glyph-name="J" unicode="J" horiz-adv-x="429" 
d="M208 624l103 13l102 15q-19 -177 -22 -328q-3 -149 8 -272l-184 -37q-5 0 -107 12q-42 8 -78 13l-38 6l70 151l73 -8l74 -8z" />
    <glyph glyph-name="K" unicode="K" horiz-adv-x="537" 
d="M17 624l198 28q-10 -76 -11 -122q92 64 163 127l171 -70l-203 -151l221 -352l-198 -83l-166 325q-2 -140 7 -274l-180 -38z" />
    <glyph glyph-name="L" unicode="L" horiz-adv-x="414" 
d="M18 622l197 28q-25 -241 -23 -442l207 24l21 -162q-162 -9 -402 -60v612z" />
    <glyph glyph-name="M" unicode="M" horiz-adv-x="728" 
d="M-14 24q96 266 143 597l183 33l55 -314l47 301l174 13q40 -296 155 -627l-193 -33l-71 319l-42 -303l-161 -11l-42 334l-58 -342z" />
    <glyph glyph-name="N" unicode="N" horiz-adv-x="558" 
d="M23 639l201 30q6 -27 17 -78q29 -116 62 -205q18 -51 37 -81v336l202 28q-41 -348 -17 -600l-183 -40q-1 2 -22 32l-93 128q-26 30 -30 41q0 -105 8 -201l-181 -38z" />
    <glyph glyph-name="O" unicode="O" horiz-adv-x="569" 
d="M75 541q85 116 224 116q116 0 196 -96q43 -53 60 -109q16 -57 13 -124q-4 -114 -75 -210q-86 -117 -225 -117q-118 0 -197 97q-33 42 -54 104q-19 61 -16 126q6 119 74 213zM368 430q-28 57 -73 57q-54 0 -90 -73q-24 -54 -26 -112q-2 -29 5 -54q11 -36 33 -53
q28 -22 66 -22q57 0 86 44q21 37 22 93q1 62 -23 120z" />
    <glyph glyph-name="P" unicode="P" horiz-adv-x="507" 
d="M25 310q4 267 -10 318q172 37 277 31q102 -5 157 -51q56 -48 57 -140q1 -75 -38 -133q-33 -49 -94 -83q-71 -42 -173 -55q-3 -63 9 -179l-192 -18q5 86 7 310zM197 349q64 1 106 36q29 26 35 64q8 51 -37 68q-41 12 -109 -6z" />
    <glyph glyph-name="Q" unicode="Q" horiz-adv-x="613" 
d="M287 302l76 30l74 32q-6 48 -29 84q-29 48 -73 48q-65 0 -112 -75q-42 -61 -48 -126q-7 -75 49 -117q55 -45 128 -10zM547 568q40 -50 54 -111q37 -146 -49 -289q14 -36 59 -112l-151 -74l-27 63q-83 -49 -165 -49q-126 0 -202 96q-39 51 -51 111q-15 58 -7 126
q13 119 95 218q100 120 245 120q123 0 199 -99z" />
    <glyph glyph-name="R" unicode="R" horiz-adv-x="524" 
d="M192 449l-2 -62q40 16 73 39q58 39 51 69q-4 22 -40 24q-27 1 -77 -10q-5 -31 -5 -60zM313 665q164 0 189 -114q14 -137 -139 -224q23 -32 176 -198q-63 -50 -161 -125l-188 244q-1 -117 7 -213l-179 -40q17 466 -3 628q177 42 298 42z" />
    <glyph glyph-name="S" unicode="S" horiz-adv-x="553" 
d="M503 541q6 -30 12 -67q-28 -10 -86 -26l-87 -25q-8 39 -40 39q-45 0 -82 -34q-23 -28 -15 -53q9 -15 53 -15q22 0 58 5q51 7 91 7q101 0 131 -50q9 -17 13 -32q14 -56 -31 -120q-55 -84 -177 -142q-62 -29 -131 -29q-62 0 -128 24q18 52 59 155q44 -21 88 -21q18 0 37 5
q37 7 66 20q43 18 39 38q-5 23 -54 23q-36 0 -96 -9q-61 -12 -96 -12q-44 0 -71 13q-53 22 -55 70q-8 95 115 220q128 131 245 138q111 3 142 -122z" />
    <glyph glyph-name="T" unicode="T" horiz-adv-x="515" 
d="M521 495q-127 -7 -181 -11q-11 -105 27 -457l-212 -39l-1 482q-18 -1 -75 -9q-53 -5 -85 -8l12 167l482 40z" />
    <glyph glyph-name="U" unicode="U" horiz-adv-x="560" 
d="M70 646l203 -14l-32 -152l-34 -153q0 -10 -7 -49q-7 -35 -7 -56q0 -70 71 -70q52 0 79 30q28 27 28 73l-47 403l199 -11l19 -214l19 -218q8 -104 -86 -156q-72 -40 -231 -56q-152 -16 -206 61q-52 66 -32 188z" />
    <glyph glyph-name="V" unicode="V" horiz-adv-x="507" 
d="M201 658q12 -138 45 -407q35 255 47 386l219 -14q-87 -278 -155 -592l-251 -29q-25 257 -111 622z" />
    <glyph glyph-name="W" unicode="W" horiz-adv-x="719" 
d="M735 624q-97 -261 -144 -593l-197 -34l-39 282l-43 -270l-180 -9q-40 293 -146 598l195 36l61 -296l36 316l162 11l47 -347l59 340z" />
    <glyph glyph-name="X" unicode="X" 
d="M180 680l43 -86q21 -38 42 -85l40 77q20 39 38 74l213 -13l-195 -312q79 -142 157 -254l-147 -94l-113 190l-114 -178l-165 41q94 131 187 291l-158 262z" />
    <glyph glyph-name="Y" unicode="Y" horiz-adv-x="534" 
d="M548 631q-91 -173 -158 -328q-67 -157 -112 -297l-188 11l84 200l-93 183l-95 185l215 81q8 -43 21 -104q13 -64 38 -126l85 219z" />
    <glyph glyph-name="Z" unicode="Z" horiz-adv-x="586" 
d="M568 654q2 -41 8 -161q-43 -39 -164 -158q-40 -36 -80 -78q-54 -52 -73 -79l283 13l15 -163q-314 -6 -516 -26l-39 161q41 41 163 159l169 162q-102 -7 -219 -23l-32 167z" />
    <glyph glyph-name="bracketleft" unicode="[" horiz-adv-x="311" 
d="M204 -28q5 0 8 1q29 3 52 6q55 6 104 18l37 -129q-228 -41 -360 -40q-7 142 -15 293q-3 62 -4.5 134.5t-2 149.5t0.5 155q1 77 3 152l-1 14q48 13 134.5 31t113 21t49.5 5l26 -129q-50 -6 -105 -13q-24 -5 -47 -9q-1 -86 -1 -175q1 -69 1 -145.5t2 -157.5t5 -160
q1 -12 0 -22z" />
    <glyph glyph-name="backslash" unicode="\" horiz-adv-x="525" 
d="M93 789q69 -125 141 -257q33 -54 68 -115.5t72.5 -125.5t76.5 -128.5t76 -122.5l-123 -63q-70 109 -141 228q-30 51 -64 109t-70 119.5t-70.5 125.5t-64.5 124z" />
    <glyph glyph-name="bracketright" unicode="]" horiz-adv-x="200" 
d="M-25 -141l-21 125q52 2 107 10q24 3 49 7q6 82 9 166q4 67 7.5 139.5t6 149t3.5 156.5v25q-1 0 -1 1h-50q-58 0 -107 -2l-5 126q23 3 50 3.5t53 0t51 -2t47 -2.5q53 -4 101 -9q25 -179 28 -268q-1 -59 -3.5 -128.5t-7 -143t-10.5 -147.5q-5 -71 -10 -136v-21
q-48 -14 -98 -23q-17 -3 -96.5 -13.5t-102.5 -12.5z" />
    <glyph glyph-name="asciicircum" unicode="^" horiz-adv-x="723" 
d="M87 -13q-20 6 -38.5 14.5t-28.5 24.5t-14 32t1 34q3 20 17 33t29.5 22.5t37 14t40.5 1.5q22 -4 39 -15t27 -24t14 -31t0 -34q-6 -17 -17 -33t-27.5 -24.5t-37 -13.5t-42.5 -1zM35 208q3 10 -5 120.5t-31 337.5l224 24l-40 -475q-152 4 -148 -7zM282 -3q-18 4 -35 13
t-28.5 24.5t-16 32.5t0.5 36q4 18 17.5 31t29.5 23t36.5 14t40.5 2q22 -5 39 -16t27.5 -24.5t14.5 -30.5t0 -35q-5 -17 -17 -32.5t-29 -24.5t-37 -13t-43 0zM267 713l262 27l-133 -525q-142 13 -148 6t3 149t16 343zM458 217q1 -3 31.5 156.5t39.5 281.5l238 -27l-172 -442
q-138 31 -137 31zM475 -12q-21 6 -38 15.5t-27.5 24.5t-15 31t0.5 34q4 20 17 33t29 23t37.5 14t41.5 2q22 -5 38 -16t26 -24t15.5 -30.5t-1.5 -34.5q-5 -17 -16 -32t-27.5 -24.5t-37.5 -14.5t-42 -1z" />
    <glyph glyph-name="underscore" unicode="_" horiz-adv-x="486" 
d="M484 -83q-274 3 -476 -3l-16 88l501 2z" />
    <glyph glyph-name="grave" unicode="`" horiz-adv-x="204" 
d="M123 689l68 -190l-109 -27l-105 184z" />
    <glyph glyph-name="a" unicode="a" horiz-adv-x="553" 
d="M-14 37q103 298 156 593l260 34q47 -267 165 -614l-197 -41l-28 109l-129 -12l-22 -110zM317 234l-49 230l-40 -231z" />
    <glyph glyph-name="b" unicode="b" horiz-adv-x="537" 
d="M24 346q-10 247 -14 269q82 32 187 33q107 2 177 -35q74 -41 79 -106q6 -73 -82 -140q105 -12 148 -97q20 -36 13 -77q-7 -44 -44 -80q-79 -82 -210 -100q-92 -15 -247 -3q6 158 -7 336zM190 153q51 -3 85 6q49 12 58 45q12 45 -40 63q-49 15 -107 -1zM175 405
q82 15 101 49q35 63 -41 69q-33 3 -70 -6z" />
    <glyph glyph-name="c" unicode="c" horiz-adv-x="464" 
d="M43 159q-45 84 -44 179q2 89 41 165q38 80 100 122q70 45 153 35q90 -10 183 -90l-48 -58l-51 -60q-96 56 -151 7q-50 -41 -47 -128q2 -87 54 -128q57 -47 146 12l95 -107q-75 -89 -164 -104q-77 -13 -155 33q-69 41 -112 122z" />
    <glyph glyph-name="d" unicode="d" horiz-adv-x="544" 
d="M18 626q132 22 228 15q111 -9 175 -54q96 -67 116 -151q7 -32 5 -65q-5 -71 -40 -132q-41 -68 -119 -123q-45 -32 -100 -54q-112 -48 -257 -52h-2l-4 512q-2 92 -2 104zM204 323q-1 -68 3 -127q74 26 116 80q39 53 32 108q-10 48 -50 71q-37 21 -92 19q-8 -88 -9 -151z
" />
    <glyph glyph-name="e" unicode="e" horiz-adv-x="459" 
d="M322 495q-55 -7 -103 -11q-5 -30 -6 -44l-2 -43l84 12l80 12l7 -59l8 -61q-78 -11 -103 -15q-42 -7 -76 -12l-2 -81l110 14l110 15l11 -82l11 -79q-84 -5 -191 -19q-107 -17 -235 -41q-1 52 -2 154l-3 156q-2 205 -2 310l194 20l196 22l12 -80l13 -81q-58 -3 -111 -7z
" />
    <glyph glyph-name="f" unicode="f" horiz-adv-x="446" 
d="M207 479l-4 -93l209 32l20 -119q-122 -17 -229 -33q0 -116 11 -227l-196 -40l-11 618l402 41l27 -159q-120 -6 -229 -20z" />
    <glyph glyph-name="g" unicode="g" horiz-adv-x="625" 
d="M152 19q-51 26 -90 72q-18 26 -34 53q-10 29 -20 57q-6 31 -7 62q-1 33 2 65q7 59 32 113q25 55 66 105q50 59 111 88q62 30 136 30q64 0 115 -26q54 -24 93 -75l-54 -51l-54 -53q-56 58 -126 37q-63 -19 -110 -89q-55 -80 -37 -166q7 -45 37 -71q36 -30 97 -26
q52 2 88 32q39 27 53 73q-39 -5 -88 -14q-35 -5 -85 -17l3 63l6 64l165 26l165 23q9 -27 7 -60q0 -31 -8 -68q-9 -32 -23 -62q-13 -28 -31 -54q-50 -78 -124 -115q-73 -39 -170 -39q-64 0 -115 23z" />
    <glyph glyph-name="h" unicode="h" 
d="M231 652q-22 -172 -26 -294l98 14l-1 252l216 28q-40 -360 -14 -611l-200 -41l-1 241q-35 -6 -101 -15q5 -110 13 -185l-197 -41l-3 624z" />
    <glyph glyph-name="i" unicode="i" horiz-adv-x="255" 
d="M28 623l102 13l101 15q-21 -174 -26 -325q-3 -149 8 -275l-90 -22l-94 -16z" />
    <glyph glyph-name="j" unicode="j" horiz-adv-x="429" 
d="M208 624l103 13l102 15q-19 -177 -22 -328q-3 -149 8 -272l-184 -37q-5 0 -107 12q-42 8 -78 13l-38 6l70 151l73 -8l74 -8z" />
    <glyph glyph-name="k" unicode="k" horiz-adv-x="537" 
d="M17 624l198 28q-10 -76 -11 -122q92 64 163 127l171 -70l-203 -151l221 -352l-198 -83l-166 325q-2 -140 7 -274l-180 -38z" />
    <glyph glyph-name="l" unicode="l" horiz-adv-x="414" 
d="M18 622l197 28q-25 -241 -23 -442l207 24l21 -162q-162 -9 -402 -60v612z" />
    <glyph glyph-name="m" unicode="m" horiz-adv-x="728" 
d="M-14 24q96 266 143 597l183 33l55 -314l47 301l174 13q40 -296 155 -627l-193 -33l-71 319l-42 -303l-161 -11l-42 334l-58 -342z" />
    <glyph glyph-name="n" unicode="n" horiz-adv-x="558" 
d="M23 639l201 30q6 -27 17 -78q29 -116 62 -205q18 -51 37 -81v336l202 28q-41 -348 -17 -600l-183 -40q-1 2 -22 32l-93 128q-26 30 -30 41q0 -105 8 -201l-181 -38z" />
    <glyph glyph-name="o" unicode="o" horiz-adv-x="569" 
d="M75 541q85 116 224 116q116 0 196 -96q43 -53 60 -109q16 -57 13 -124q-4 -114 -75 -210q-86 -117 -225 -117q-118 0 -197 97q-33 42 -54 104q-19 61 -16 126q6 119 74 213zM368 430q-28 57 -73 57q-54 0 -90 -73q-24 -54 -26 -112q-2 -29 5 -54q11 -36 33 -53
q28 -22 66 -22q57 0 86 44q21 37 22 93q1 62 -23 120z" />
    <glyph glyph-name="p" unicode="p" horiz-adv-x="507" 
d="M25 310q4 267 -10 318q172 37 277 31q102 -5 157 -51q56 -48 57 -140q1 -75 -38 -133q-33 -49 -94 -83q-71 -42 -173 -55q-3 -63 9 -179l-192 -18q5 86 7 310zM197 349q64 1 106 36q29 26 35 64q8 51 -37 68q-41 12 -109 -6z" />
    <glyph glyph-name="q" unicode="q" horiz-adv-x="613" 
d="M287 302l76 30l74 32q-6 48 -29 84q-29 48 -73 48q-65 0 -112 -75q-42 -61 -48 -126q-7 -75 49 -117q55 -45 128 -10zM547 568q40 -50 54 -111q37 -146 -49 -289q14 -36 59 -112l-151 -74l-27 63q-83 -49 -165 -49q-126 0 -202 96q-39 51 -51 111q-15 58 -7 126
q13 119 95 218q100 120 245 120q123 0 199 -99z" />
    <glyph glyph-name="r" unicode="r" horiz-adv-x="524" 
d="M192 449l-2 -62q40 16 73 39q58 39 51 69q-4 22 -40 24q-27 1 -77 -10q-5 -31 -5 -60zM313 665q164 0 189 -114q14 -137 -139 -224q23 -32 176 -198q-63 -50 -161 -125l-188 244q-1 -117 7 -213l-179 -40q17 466 -3 628q177 42 298 42z" />
    <glyph glyph-name="s" unicode="s" horiz-adv-x="553" 
d="M503 541q6 -30 12 -67q-28 -10 -86 -26l-87 -25q-8 39 -40 39q-45 0 -82 -34q-23 -28 -15 -53q9 -15 53 -15q22 0 58 5q51 7 91 7q101 0 131 -50q9 -17 13 -32q14 -56 -31 -120q-55 -84 -177 -142q-62 -29 -131 -29q-62 0 -128 24q18 52 59 155q44 -21 88 -21q18 0 37 5
q37 7 66 20q43 18 39 38q-5 23 -54 23q-36 0 -96 -9q-61 -12 -96 -12q-44 0 -71 13q-53 22 -55 70q-8 95 115 220q128 131 245 138q111 3 142 -122z" />
    <glyph glyph-name="t" unicode="t" horiz-adv-x="515" 
d="M521 495q-127 -7 -181 -11q-11 -105 27 -457l-212 -39l-1 482q-18 -1 -75 -9q-53 -5 -85 -8l12 167l482 40z" />
    <glyph glyph-name="u" unicode="u" horiz-adv-x="560" 
d="M70 646l203 -14l-32 -152l-34 -153q0 -10 -7 -49q-7 -35 -7 -56q0 -70 71 -70q52 0 79 30q28 27 28 73l-47 403l199 -11l19 -214l19 -218q8 -104 -86 -156q-72 -40 -231 -56q-152 -16 -206 61q-52 66 -32 188z" />
    <glyph glyph-name="v" unicode="v" horiz-adv-x="507" 
d="M201 658q12 -138 45 -407q35 255 47 386l219 -14q-87 -278 -155 -592l-251 -29q-25 257 -111 622z" />
    <glyph glyph-name="w" unicode="w" horiz-adv-x="719" 
d="M735 624q-97 -261 -144 -593l-197 -34l-39 282l-43 -270l-180 -9q-40 293 -146 598l195 36l61 -296l36 316l162 11l47 -347l59 340z" />
    <glyph glyph-name="x" unicode="x" 
d="M180 680l43 -86q21 -38 42 -85l40 77q20 39 38 74l213 -13l-195 -312q79 -142 157 -254l-147 -94l-113 190l-114 -178l-165 41q94 131 187 291l-158 262z" />
    <glyph glyph-name="y" unicode="y" horiz-adv-x="534" 
d="M548 631q-91 -173 -158 -328q-67 -157 -112 -297l-188 11l84 200l-93 183l-95 185l215 81q8 -43 21 -104q13 -64 38 -126l85 219z" />
    <glyph glyph-name="z" unicode="z" horiz-adv-x="586" 
d="M568 654q2 -41 8 -161q-43 -39 -164 -158q-40 -36 -80 -78q-54 -52 -73 -79l283 13l15 -163q-314 -6 -516 -26l-39 161q41 41 163 159l169 162q-102 -7 -219 -23l-32 167z" />
    <glyph glyph-name="braceleft" unicode="{" horiz-adv-x="547" 
d="M21 391q64 -4 129 -5q29 0 60.5 -0.5t64 0t66 2t64.5 4.5l-2 -120q-60 -4 -122 -5q-24 -1 -54 -1.5t-61.5 -0.5t-63.5 1.5t-60 2.5zM425 411q-50 25 -103 47q-21 11 -46 21.5t-52 21t-54 19t-53 18.5l50 109q46 -14 98 -32q21 -8 44.5 -17.5t48.5 -20.5t50 -23t47 -26z
M137 102q54 19 109 41q22 10 48 22t52 23.5t53 26.5t50 28l54 -108q-46 -23 -94 -48q-20 -10 -44.5 -22t-49 -23.5t-51.5 -20t-54 -19.5z" />
    <glyph glyph-name="braceright" unicode="}" horiz-adv-x="547" 
d="M509 279q-61 4 -127 7q-30 0 -60.5 0.5t-63 0t-67 -3t-64.5 -5.5l4 121q57 4 118 6q27 1 56.5 1.5t60 0.5t63 -1.5t65.5 -3.5zM102 241q48 -27 100 -49q24 -10 47.5 -20t50.5 -21.5t54.5 -20t52.5 -16.5l-46 -112q-50 16 -100 36q-22 7 -45 16t-48 19.5t-51 23t-48 25.5z
M386 550q-53 -22 -108 -43q-21 -9 -47.5 -20.5t-52 -24t-51 -26t-52.5 -28.5l-54 107q45 25 95 49q20 9 44 19.5t49.5 23.5t52 22t51.5 18z" />
    <glyph glyph-name="asciitilde" unicode="~" horiz-adv-x="544" 
d="M200 292l4 -83l-129 -17l-36 158q156 69 153.5 134.5t-194.5 20.5l-12 141q141 18 236 1q126 -21 139 -108q14 -111 -93 -201q-25 -22 -68 -46zM128 -14q-20 6 -37 14.5t-27 24.5t-13 32.5t2 33.5q6 20 18.5 33.5t30 23t39 14t41.5 0.5q19 -3 36 -14t27 -24.5t14 -31
t-3 -33.5q-4 -18 -17 -34t-30.5 -24.5t-38.5 -13.5t-42 -1zM377 -14q-21 6 -39 14.5t-28 24.5t-14 32.5t1 33.5q3 20 15 33.5t30 23t37.5 14t40.5 0.5q21 -3 38 -14t28.5 -24.5t14.5 -31t0 -33.5q-5 -18 -17.5 -34t-28.5 -24.5t-38 -13.5t-40 -1zM343 214q1 -1 3 19t5.5 52
t6.5 71.5t5 82.5q7 101 15 229l196 -25l-102 -446q-35 6 -64 10q-14 2 -24 3.5t-19.5 2.5t-15.5 1h-6z" />
    <glyph glyph-name="Scedilla" unicode="&#x15e;" horiz-adv-x="539" 
d="M459 541q6 -30 12 -67q-25 -10 -86 -26l-84 -25q-9 39 -43 39q-45 0 -80 -34q-25 -28 -15 -53q10 -15 51 -15q24 0 58 5q51 7 93 7q99 0 130 -50q8 -17 12 -32q14 -56 -29 -120q-53 -84 -176 -142q-63 -29 -132 -29q-62 0 -128 24q17 52 59 155q42 -21 86 -21q18 0 39 5
q35 7 66 20q42 18 37 38q-5 23 -54 23q-33 0 -95 -9q-62 -12 -96 -12q-43 0 -70 13q-55 22 -57 70q-8 95 115 220q128 131 245 138q113 3 142 -122zM261 -91l-129 -150l-79 37l98 151z" />
    <glyph glyph-name="Scaron" unicode="&#x160;" horiz-adv-x="539" 
d="M459 541q-29 125 -142 122q-117 -7 -245 -138q-123 -125 -115 -220q2 -48 57 -70q27 -13 70 -13q34 0 96 12q62 9 95 9q49 0 54 -23q5 -20 -37 -38q-31 -13 -66 -20q-21 -5 -39 -5q-44 0 -86 21q-42 -103 -59 -155q66 -24 128 -24q69 0 132 29q123 58 176 142
q43 64 29 120q-4 15 -12 32q-31 50 -130 50q-42 0 -93 -7q-34 -5 -58 -5q-41 0 -51 15q-10 25 15 53q35 34 80 34q34 0 43 -39l84 25q61 16 86 26q-6 37 -12 67zM72 739l75 68l107 -76l109 76l68 -76l-177 -125z" />
    <glyph glyph-name="scaron" unicode="&#x161;" horiz-adv-x="539" 
d="M496 541q-33 125 -145 122q-115 -7 -242 -138q-125 -125 -115 -220q2 -48 55 -70q25 -13 70 -13q34 0 95 12q62 9 97 9q50 0 55 -23q4 -20 -40 -38q-28 -13 -66 -20q-18 -5 -38 -5q-43 0 -87 21q-43 -103 -60 -155q67 -24 129 -24q70 0 133 29q121 58 177 142
q43 64 29 120q-4 15 -15 32q-27 50 -129 50q-39 0 -92 -7q-34 -5 -56 -5q-44 0 -53 15q-9 25 14 53q37 34 83 34q31 0 40 -39l85 25q60 16 86 26q-4 37 -10 67zM131 757l76 68l105 -77l108 77l68 -77l-176 -124z" />
    <glyph glyph-name="Ydieresis" unicode="&#x178;" horiz-adv-x="476" 
d="M310 655l-86 -219q-26 62 -38 126q-12 61 -20 104l-216 -81l95 -185l91 -183l-82 -200l189 -11q44 140 112 297q66 155 156 328zM505 714q0 -32 -27 -56t-66 -24q-37 0 -64 24t-27 56q0 37 27 61t66 24t65 -24.5t26 -60.5zM248 714q0 -32 -26.5 -56t-66.5 -24
q-37 0 -64 24t-27 56q0 37 27 61t66 24q40 0 65.5 -24.5t25.5 -60.5z" />
    <glyph glyph-name="ogonek" unicode="&#x2db;" horiz-adv-x="357" 
d="M295 -209q-14 -5 -38.5 -11.5t-55.5 -6.5q-27 0 -53 7.5t-46 20t-31.5 33.5t-11.5 49q0 20 9.5 37t25 30.5t32.5 27t36 22.5h83v-2q-30 -14 -53.5 -38t-23.5 -46t16 -35t40 -13q18 0 35 6.5t36 12.5v-94z" />
    <glyph glyph-name="tilde" unicode="&#x2dc;" horiz-adv-x="374" 
d="M388 811q-4 -27 -11 -52t-20.5 -46t-35 -35t-56.5 -14q-24 0 -48.5 8t-47.5 17q-15 5 -26.5 9t-25.5 4q-19 0 -28.5 -9.5t-11.5 -25.5h-91q2 25 8 51.5t18 47t34 35t57 14.5q25 0 45 -6.5t36.5 -15.5t33 -15t34.5 -6q23 0 33 13t12 32z" />
    <glyph glyph-name="hungarumlaut" unicode="&#x2dd;" horiz-adv-x="382" 
d="M429 780l-161 -151l-85 45l120 158zM198 780l-158 -151l-87 45l119 158z" />
    <glyph glyph-name="afii10023" unicode="&#x401;" horiz-adv-x="443" 
d="M210 480q-3 -25 -5 -49l-2 -47l186 28l19 -117q-134 -20 -209 -31q-1 -18 0 -33v-34l219 21l23 -159q-171 -10 -423 -60l-11 618l390 41l28 -159q-120 -6 -215 -19zM391 732q-5 -28 -35.5 -47t-68.5 -19q-36 0 -61 19t-19 47q3 27 33 47t71 20q37 0 60 -20t20 -47z
M192 709q-4 -26 -34.5 -45.5t-69.5 -19.5q-36 0 -60 19.5t-20 45.5q6 27 36 47t70 20q37 0 60 -20t18 -47z" />
    <glyph glyph-name=".notdef.001" horiz-adv-x="222" 
 />
    <glyph glyph-name="afii10017" unicode="&#x410;" horiz-adv-x="553" 
d="M-14 37q103 298 156 593l260 34q47 -267 165 -614l-197 -41l-28 109l-129 -12l-22 -110zM317 234l-49 230l-40 -231z" />
    <glyph glyph-name="afii10018" unicode="&#x411;" horiz-adv-x="525" 
d="M386 412q115 -27 134 -107q22 -85 -25 -150q-41 -57 -127 -94q-78 -35 -175 -46q-90 -12 -165 0l-1 303q-3 161 -9 307l357 25l40 -154q-99 -4 -222 -12v-59q111 8 193 -13zM196 155q78 7 120 37q39 28 25 64q-7 23 -45 34q-39 9 -99 3z" />
    <glyph glyph-name="afii10019" unicode="&#x412;" horiz-adv-x="537" 
d="M24 346q-10 247 -14 269q82 32 187 33q107 2 177 -35q74 -41 79 -106q6 -73 -82 -140q105 -12 148 -97q20 -36 13 -77q-7 -44 -44 -80q-79 -82 -210 -100q-92 -15 -247 -3q6 158 -7 336zM190 153q51 -3 85 6q49 12 58 45q12 45 -40 63q-49 15 -107 -1zM175 405
q82 15 101 49q35 63 -41 69q-33 3 -70 -6z" />
    <glyph glyph-name="afii10020" unicode="&#x413;" horiz-adv-x="437" 
d="M210 259q-9 103 22 -219l-102 -21l-103 -19l-6 309l-3 311l201 19l200 21l13 -78l11 -80q-95 -7 -129 -10q-71 -7 -113 -10q-2 -89 9 -223z" />
    <glyph glyph-name="afii10021" unicode="&#x414;" horiz-adv-x="612" 
d="M355 142q-18 77 -46 262q-31 -151 -49 -266zM616 136l-5 -70l-9 -69q-148 6 -296 3q-146 -2 -293 -17l-19 138l70 7q74 216 127 500l271 31q20 -262 87 -517z" />
    <glyph glyph-name="afii10022" unicode="&#x415;" horiz-adv-x="459" 
d="M322 495q-55 -7 -103 -11q-5 -30 -6 -44l-2 -43l84 12l80 12l7 -59l8 -61q-78 -11 -103 -15q-42 -7 -76 -12l-2 -81l110 14l110 15l11 -82l11 -79q-84 -5 -191 -19q-107 -17 -235 -41q-1 52 -2 154l-3 156q-2 205 -2 310l194 20l196 22l12 -80l13 -81q-58 -3 -111 -7z
" />
    <glyph glyph-name="afii10024" unicode="&#x416;" horiz-adv-x="829" 
d="M523 631q-5 -54 -11 -147q15 11 44 44q30 39 41 49q-34 -28 74 59l167 -69l-197 -178l217 -308l-195 -81l-160 276l-8 -176q-2 -47 4 -84l-189 -28l8 280l-161 -261l-193 80l232 309l-192 180l169 68q19 -16 73 -77q50 -53 78 -74l4 200z" />
    <glyph glyph-name="afii10025" unicode="&#x417;" horiz-adv-x="502" 
d="M435 443q-26 -39 -79 -71q150 -22 145 -139q-4 -103 -96 -173q-94 -73 -208 -55q-69 12 -122 49q-55 40 -90 115l185 50q21 -35 48 -45q24 -11 43 0q41 21 30 68q-14 41 -65 40q-34 0 -105 -5l9 58l10 56q41 2 86 25q51 31 42 62q-3 14 -15 20t-34 5q-20 0 -56 -19
q-34 -19 -85 -52l-43 67l-48 68q124 90 277 93q76 3 124 -28q54 -34 63 -102q6 -46 -16 -87z" />
    <glyph glyph-name="afii10026" unicode="&#x418;" horiz-adv-x="556" 
d="M233 651q-23 -91 -33 -182q-8 -90 -2 -187q29 100 79 210q51 106 65 136l197 24q-16 -167 -13 -320q4 -155 12 -278l-168 -34q-10 163 -20 317q-33 -61 -71 -139q-34 -79 -43 -144q-22 -2 -109 -19q-53 -12 -87 -21q-14 157 -16 306q-1 149 -14 302z" />
    <glyph glyph-name="afii10027" unicode="&#x419;" horiz-adv-x="574" 
d="M494 647l-256 -59l-19 90l200 74zM550 23q-6 153 1 303q7 151 6 306q-40 -10 -94 -20q29 5 -107 -22q-14 -64 -53 -141q-40 -82 -88 -161q0 173 -22 332l-183 -36q18 -124 27 -279q6 -155 -17 -311l194 24q19 29 77 136q57 110 91 187q0 -74 -14 -164q-17 -92 -44 -182z
" />
    <glyph glyph-name="afii10028" unicode="&#x41a;" horiz-adv-x="525" 
d="M17 624l198 28q-10 -76 -11 -122q92 64 163 127l171 -70l-203 -151l221 -352l-198 -83l-166 325q-2 -140 7 -274l-180 -38z" />
    <glyph glyph-name="afii10029" unicode="&#x41b;" horiz-adv-x="511" 
d="M305 -13q-10 140 -46 416q-35 -261 -47 -394l-225 15q92 281 159 600l262 30q23 -261 112 -631z" />
    <glyph glyph-name="afii10030" unicode="&#x41c;" horiz-adv-x="728" 
d="M-14 24q96 266 143 597l183 33l55 -314l47 301l174 13q40 -296 155 -627l-193 -33l-71 319l-42 -303l-161 -11l-42 334l-58 -342z" />
    <glyph glyph-name="afii10031" unicode="&#x41d;" 
d="M231 652q-22 -172 -26 -294l98 14l-1 252l216 28q-40 -360 -14 -611l-200 -41l-1 241q-35 -6 -101 -15q5 -110 13 -185l-197 -41l-3 624z" />
    <glyph glyph-name="afii10032" unicode="&#x41e;" horiz-adv-x="569" 
d="M75 541q85 116 224 116q116 0 196 -96q43 -53 60 -109q16 -57 13 -124q-4 -114 -75 -210q-86 -117 -225 -117q-118 0 -197 97q-33 42 -54 104q-19 61 -16 126q6 119 74 213zM368 430q-28 57 -73 57q-54 0 -90 -73q-24 -54 -26 -112q-2 -29 5 -54q11 -36 33 -53
q28 -22 66 -22q57 0 86 44q21 37 22 93q1 62 -23 120z" />
    <glyph glyph-name="afii10033" unicode="&#x41f;" horiz-adv-x="504" 
d="M18 595q462 60 465 60q-5 -40 9 -629l-193 -23l3 492q-33 -3 -88 -11q-15 -207 4 -455l-194 -35q3 95 -3 302q-5 198 -3 299z" />
    <glyph glyph-name="afii10034" unicode="&#x420;" horiz-adv-x="507" 
d="M25 310q4 267 -10 318q172 37 277 31q102 -5 157 -51q56 -48 57 -140q1 -75 -38 -133q-33 -49 -94 -83q-71 -42 -173 -55q-3 -63 9 -179l-192 -18q5 86 7 310zM197 349q64 1 106 36q29 26 35 64q8 51 -37 68q-41 12 -109 -6z" />
    <glyph glyph-name="afii10035" unicode="&#x421;" horiz-adv-x="464" 
d="M43 159q-45 84 -44 179q2 89 41 165q38 80 100 122q70 45 153 35q90 -10 183 -90l-48 -58l-51 -60q-96 56 -151 7q-50 -41 -47 -128q2 -87 54 -128q57 -47 146 12l95 -107q-75 -89 -164 -104q-77 -13 -155 33q-69 41 -112 122z" />
    <glyph glyph-name="afii10036" unicode="&#x422;" horiz-adv-x="515" 
d="M521 495q-127 -7 -181 -11q-11 -105 27 -457l-212 -39l-1 482q-18 -1 -75 -9q-53 -5 -85 -8l12 167l482 40z" />
    <glyph glyph-name="afii10037" unicode="&#x423;" horiz-adv-x="534" 
d="M548 631q-91 -173 -158 -328q-67 -157 -112 -297l-188 11l84 200l-93 183l-95 185l215 81q8 -43 21 -104q13 -64 38 -126l85 219z" />
    <glyph glyph-name="afii10038" unicode="&#x424;" horiz-adv-x="825" 
d="M211 378q-33 -49 -23 -112q8 -40 48 -66q33 -19 85 -16q7 108 2 273q-76 -29 -112 -79zM603 278q34 49 25 114q-6 34 -39 54q-32 18 -86 23q-17 -178 -5 -269q73 34 105 78zM524 620q130 -22 211 -88q97 -74 87 -181q-9 -106 -100 -186q-79 -72 -202 -105l4 -54l-215 -35
l4 64q-123 5 -196 49q-86 51 -110 162q-25 115 74 230q95 111 231 141l-3 79l217 -42z" />
    <glyph glyph-name="afii10039" unicode="&#x425;" 
d="M180 680l43 -86q21 -38 42 -85l40 77q20 39 38 74l213 -13l-195 -312q79 -142 157 -254l-147 -94l-113 190l-114 -178l-165 41q94 131 187 291l-158 262z" />
    <glyph glyph-name="afii10040" unicode="&#x426;" horiz-adv-x="594" 
d="M119 648l104 16q-22 -71 -21 -229q1 -145 20 -273h48q26 1 52 1l-1 263q-1 163 -7 213l98 14l96 12q-9 -113 -10 -245q0 -103 4 -244q60 4 130 12l-45 -117l-36 -140l-83 16l-83 16l10 35l12 31q-172 -10 -208 -12q-113 -9 -155 -14q-13 330 -13 316q-6 181 -16 315z" />
    <glyph glyph-name="afii10041" unicode="&#x427;" horiz-adv-x="506" 
d="M493 659q-22 -130 -34 -299q-10 -200 0 -319l-182 -40l9 223q-117 -23 -173 -1q-51 20 -84 90q-11 27 -15 59q-8 33 -9 70q0 38 -2 78q-3 41 -7 83l106 25l106 24q-5 -38 -12 -96q-10 -57 -6 -107q2 -50 23 -77q22 -28 78 -3v263z" />
    <glyph glyph-name="afii10042" unicode="&#x428;" horiz-adv-x="746" 
d="M223 637q-39 -299 -25 -508l80 6l-3 249q-2 172 -3 248l203 23q-33 -293 -15 -510l91 8l-17 484l195 31q-15 -157 -18 -313q-2 -155 13 -316l-706 -40l2 617z" />
    <glyph glyph-name="afii10043" unicode="&#x429;" horiz-adv-x="836" 
d="M243 639q-41 -299 -26 -508l82 6l-2 502l202 25q-36 -308 -20 -517q42 4 90 10l-12 469l193 30q-15 -161 -17 -299q-3 -88 1 -175q72 10 118 15q-57 -147 -92 -274l-166 33l28 75q-731 -37 -585 -30l7 617z" />
    <glyph glyph-name="afii10044" unicode="&#x42a;" horiz-adv-x="586" 
d="M125 511l-138 -9l56 152l263 -21q-8 -63 -7 -162q93 1 163 -28q60 -24 94 -68q35 -52 31 -126q-4 -93 -65 -149q-58 -54 -159 -79q-110 -22 -261 -14q20 140 23 504zM265 165q61 -10 110 15q50 24 41 74q-5 44 -31 62q-37 24 -108 13z" />
    <glyph glyph-name="afii10045" unicode="&#x42b;" horiz-adv-x="732" 
d="M38 319q1 118 -9 298l181 31q-9 -81 -3 -179q96 1 167 -28q61 -25 94 -68q40 -52 38 -126q-1 -93 -57 -151q-55 -53 -157 -77q-105 -22 -277 -13q22 105 23 313zM192 152q68 -9 109 13q45 24 37 73q-6 37 -35 59q-42 26 -106 17zM518 608l1 -610l182 40q-23 252 15 598z
" />
    <glyph glyph-name="afii10046" unicode="&#x42c;" horiz-adv-x="506" 
d="M38 323q1 118 -9 299l181 31q-9 -82 -3 -179q96 1 167 -27q61 -26 94 -70q40 -52 38 -125q-1 -93 -57 -150q-55 -55 -157 -79q-105 -22 -277 -13q22 105 23 313zM192 156q68 -9 109 13q45 24 37 74q-6 36 -35 58q-42 26 -106 18z" />
    <glyph glyph-name="afii10047" unicode="&#x42d;" horiz-adv-x="479" 
d="M18 527q-8 89 -8 105q149 39 270 7q177 -47 195 -220q10 -110 -48 -215q-35 -60 -87 -104q-53 -48 -120 -74q-90 -30 -190 -10l1 170q90 -12 157 14q68 30 99 92l-203 -17l1 141l222 5q-5 73 -97 81q-41 4 -102 -5q-22 -3 -90 -17v47z" />
    <glyph glyph-name="afii10048" unicode="&#x42e;" horiz-adv-x="775" 
d="M302 541q81 116 214 116q112 0 186 -96q42 -53 58 -109q16 -57 13 -124q-4 -114 -73 -210q-80 -117 -213 -117q-114 0 -188 97q-34 42 -53 104q-8 24 -11 46q-27 -1 -52 -3q-4 -110 5 -204l-178 -33q8 369 34 626l184 -28q-26 -126 -36 -239l43 2q13 92 67 172zM580 430
q-24 57 -71 57q-50 0 -81 -73q-26 -54 -28 -112q-1 -29 5 -54q9 -36 32 -53q26 -22 65 -22q54 0 80 44q23 37 24 93q1 62 -26 120z" />
    <glyph glyph-name="afii10049" unicode="&#x42f;" horiz-adv-x="542" 
d="M349 478q-75 -18 -105 -42q-32 -25 -17 -59q9 -45 116 -43zM519 0l-191 10q12 95 11 174l-26 -1q-75 -122 -166 -228q-53 33 -95 58q-44 22 -69 39q107 90 171 184q-67 23 -102 71q-70 97 16 191q61 67 185 109q115 39 273 53q-17 -253 -7 -660z" />
    <glyph glyph-name="afii10065" unicode="&#x430;" horiz-adv-x="553" 
d="M-14 37q103 298 156 593l260 34q47 -267 165 -614l-197 -41l-28 109l-129 -12l-22 -110zM317 234l-49 230l-40 -231z" />
    <glyph glyph-name="afii10066" unicode="&#x431;" horiz-adv-x="525" 
d="M386 412q115 -27 134 -107q22 -85 -25 -150q-41 -57 -127 -94q-78 -35 -175 -46q-90 -12 -165 0l-1 303q-3 161 -9 307l357 25l40 -154q-99 -4 -222 -12v-59q111 8 193 -13zM196 155q78 7 120 37q39 28 25 64q-7 23 -45 34q-39 9 -99 3z" />
    <glyph glyph-name="afii10067" unicode="&#x432;" horiz-adv-x="537" 
d="M24 346q-10 247 -14 269q82 32 187 33q107 2 177 -35q74 -41 79 -106q6 -73 -82 -140q105 -12 148 -97q20 -36 13 -77q-7 -44 -44 -80q-79 -82 -210 -100q-92 -15 -247 -3q6 158 -7 336zM190 153q51 -3 85 6q49 12 58 45q12 45 -40 63q-49 15 -107 -1zM175 405
q82 15 101 49q35 63 -41 69q-33 3 -70 -6z" />
    <glyph glyph-name="afii10068" unicode="&#x433;" horiz-adv-x="437" 
d="M210 259q-9 103 22 -219l-102 -21l-103 -19l-6 309l-3 311l201 19l200 21l13 -78l11 -80q-95 -7 -129 -10q-71 -7 -113 -10q-2 -89 9 -223z" />
    <glyph glyph-name="afii10069" unicode="&#x434;" horiz-adv-x="612" 
d="M355 142q-18 77 -46 262q-31 -151 -49 -266zM616 136l-5 -70l-9 -69q-148 6 -296 3q-146 -2 -293 -17l-19 138l70 7q74 216 127 500l271 31q20 -262 87 -517z" />
    <glyph glyph-name="afii10070" unicode="&#x435;" horiz-adv-x="459" 
d="M322 495q-55 -7 -103 -11q-5 -30 -6 -44l-2 -43l84 12l80 12l7 -59l8 -61q-78 -11 -103 -15q-42 -7 -76 -12l-2 -81l110 14l110 15l11 -82l11 -79q-84 -5 -191 -19q-107 -17 -235 -41q-1 52 -2 154l-3 156q-2 205 -2 310l194 20l196 22l12 -80l13 -81q-58 -3 -111 -7z
" />
    <glyph glyph-name="afii10072" unicode="&#x436;" horiz-adv-x="829" 
d="M523 631q-5 -54 -11 -147q15 11 44 44q30 39 41 49q-34 -28 74 59l167 -69l-197 -178l217 -308l-195 -81l-160 276l-8 -176q-2 -47 4 -84l-189 -28l8 280l-161 -261l-193 80l232 309l-192 180l169 68q19 -16 73 -77q50 -53 78 -74l4 200z" />
    <glyph glyph-name="afii10073" unicode="&#x437;" horiz-adv-x="502" 
d="M435 443q-26 -39 -79 -71q150 -22 145 -139q-4 -103 -96 -173q-94 -73 -208 -55q-69 12 -122 49q-55 40 -90 115l185 50q21 -35 48 -45q24 -11 43 0q41 21 30 68q-14 41 -65 40q-34 0 -105 -5l9 58l10 56q41 2 86 25q51 31 42 62q-3 14 -15 20t-34 5q-20 0 -56 -19
q-34 -19 -85 -52l-43 67l-48 68q124 90 277 93q76 3 124 -28q54 -34 63 -102q6 -46 -16 -87z" />
    <glyph glyph-name="afii10074" unicode="&#x438;" horiz-adv-x="556" 
d="M233 651q-23 -91 -33 -182q-8 -90 -2 -187q29 100 79 210q51 106 65 136l197 24q-16 -167 -13 -320q4 -155 12 -278l-168 -34q-10 163 -20 317q-33 -61 -71 -139q-34 -79 -43 -144q-22 -2 -109 -19q-53 -12 -87 -21q-14 157 -16 306q-1 149 -14 302z" />
    <glyph glyph-name="afii10075" unicode="&#x439;" horiz-adv-x="574" 
d="M494 647l-256 -59l-19 90l200 74zM550 23q-6 153 1 303q7 151 6 306q-40 -10 -94 -20q29 5 -107 -22q-14 -64 -53 -141q-40 -82 -88 -161q0 173 -22 332l-183 -36q18 -124 27 -279q6 -155 -17 -311l194 24q19 29 77 136q57 110 91 187q0 -74 -14 -164q-17 -92 -44 -182z
" />
    <glyph glyph-name="afii10076" unicode="&#x43a;" horiz-adv-x="525" 
d="M17 624l198 28q-10 -76 -11 -122q92 64 163 127l171 -70l-203 -151l221 -352l-198 -83l-166 325q-2 -140 7 -274l-180 -38z" />
    <glyph glyph-name="afii10077" unicode="&#x43b;" horiz-adv-x="511" 
d="M305 -13q-10 140 -46 416q-35 -261 -47 -394l-225 15q92 281 159 600l262 30q23 -261 112 -631z" />
    <glyph glyph-name="afii10078" unicode="&#x43c;" horiz-adv-x="728" 
d="M-14 24q96 266 143 597l183 33l55 -314l47 301l174 13q40 -296 155 -627l-193 -33l-71 319l-42 -303l-161 -11l-42 334l-58 -342z" />
    <glyph glyph-name="afii10079" unicode="&#x43d;" 
d="M231 652q-22 -172 -26 -294l98 14l-1 252l216 28q-40 -360 -14 -611l-200 -41l-1 241q-35 -6 -101 -15q5 -110 13 -185l-197 -41l-3 624z" />
    <glyph glyph-name="afii10080" unicode="&#x43e;" horiz-adv-x="569" 
d="M75 541q85 116 224 116q116 0 196 -96q43 -53 60 -109q16 -57 13 -124q-4 -114 -75 -210q-86 -117 -225 -117q-118 0 -197 97q-33 42 -54 104q-19 61 -16 126q6 119 74 213zM368 430q-28 57 -73 57q-54 0 -90 -73q-24 -54 -26 -112q-2 -29 5 -54q11 -36 33 -53
q28 -22 66 -22q57 0 86 44q21 37 22 93q1 62 -23 120z" />
    <glyph glyph-name="afii10081" unicode="&#x43f;" horiz-adv-x="504" 
d="M18 595q462 60 465 60q-5 -40 9 -629l-193 -23l3 492q-33 -3 -88 -11q-15 -207 4 -455l-194 -35q3 95 -3 302q-5 198 -3 299z" />
    <glyph glyph-name="afii10082" unicode="&#x440;" horiz-adv-x="507" 
d="M25 310q4 267 -10 318q172 37 277 31q102 -5 157 -51q56 -48 57 -140q1 -75 -38 -133q-33 -49 -94 -83q-71 -42 -173 -55q-3 -63 9 -179l-192 -18q5 86 7 310zM197 349q64 1 106 36q29 26 35 64q8 51 -37 68q-41 12 -109 -6z" />
    <glyph glyph-name="afii10083" unicode="&#x441;" horiz-adv-x="464" 
d="M43 159q-45 84 -44 179q2 89 41 165q38 80 100 122q70 45 153 35q90 -10 183 -90l-48 -58l-51 -60q-96 56 -151 7q-50 -41 -47 -128q2 -87 54 -128q57 -47 146 12l95 -107q-75 -89 -164 -104q-77 -13 -155 33q-69 41 -112 122z" />
    <glyph glyph-name="afii10084" unicode="&#x442;" horiz-adv-x="515" 
d="M521 495q-127 -7 -181 -11q-11 -105 27 -457l-212 -39l-1 482q-18 -1 -75 -9q-53 -5 -85 -8l12 167l482 40z" />
    <glyph glyph-name="afii10085" unicode="&#x443;" horiz-adv-x="534" 
d="M548 631q-91 -173 -158 -328q-67 -157 -112 -297l-188 11l84 200l-93 183l-95 185l215 81q8 -43 21 -104q13 -64 38 -126l85 219z" />
    <glyph glyph-name="afii10086" unicode="&#x444;" horiz-adv-x="825" 
d="M211 378q-33 -49 -23 -112q8 -40 48 -66q33 -19 85 -16q7 108 2 273q-76 -29 -112 -79zM603 278q34 49 25 114q-6 34 -39 54q-32 18 -86 23q-17 -178 -5 -269q73 34 105 78zM524 620q130 -22 211 -88q97 -74 87 -181q-9 -106 -100 -186q-79 -72 -202 -105l4 -54l-215 -35
l4 64q-123 5 -196 49q-86 51 -110 162q-25 115 74 230q95 111 231 141l-3 79l217 -42z" />
    <glyph glyph-name="afii10087" unicode="&#x445;" 
d="M180 680l43 -86q21 -38 42 -85l40 77q20 39 38 74l213 -13l-195 -312q79 -142 157 -254l-147 -94l-113 190l-114 -178l-165 41q94 131 187 291l-158 262z" />
    <glyph glyph-name="afii10088" unicode="&#x446;" horiz-adv-x="594" 
d="M119 648l104 16q-22 -71 -21 -229q1 -145 20 -273h48q26 1 52 1l-1 263q-1 163 -7 213l98 14l96 12q-9 -113 -10 -245q0 -103 4 -244q60 4 130 12l-45 -117l-36 -140l-83 16l-83 16l10 35l12 31q-172 -10 -208 -12q-113 -9 -155 -14q-13 330 -13 316q-6 181 -16 315z" />
    <glyph glyph-name="afii10089" unicode="&#x447;" horiz-adv-x="506" 
d="M493 659q-22 -130 -34 -299q-10 -200 0 -319l-182 -40l9 223q-117 -23 -173 -1q-51 20 -84 90q-11 27 -15 59q-8 33 -9 70q0 38 -2 78q-3 41 -7 83l106 25l106 24q-5 -38 -12 -96q-10 -57 -6 -107q2 -50 23 -77q22 -28 78 -3v263z" />
    <glyph glyph-name="afii10090" unicode="&#x448;" horiz-adv-x="746" 
d="M223 637q-39 -299 -25 -508l80 6l-3 249q-2 172 -3 248l203 23q-33 -293 -15 -510l91 8l-17 484l195 31q-15 -157 -18 -313q-2 -155 13 -316l-706 -40l2 617z" />
    <glyph glyph-name="afii10091" unicode="&#x449;" horiz-adv-x="836" 
d="M243 639q-41 -299 -26 -508l82 6l-2 502l202 25q-36 -308 -20 -517q42 4 90 10l-12 469l193 30q-15 -161 -17 -299q-3 -88 1 -175q72 10 118 15q-57 -147 -92 -274l-166 33l28 75q-731 -37 -585 -30l7 617z" />
    <glyph glyph-name="afii10092" unicode="&#x44a;" horiz-adv-x="586" 
d="M125 511l-138 -9l56 152l263 -21q-8 -63 -7 -162q93 1 163 -28q60 -24 94 -68q35 -52 31 -126q-4 -93 -65 -149q-58 -54 -159 -79q-110 -22 -261 -14q20 140 23 504zM265 165q61 -10 110 15q50 24 41 74q-5 44 -31 62q-37 24 -108 13z" />
    <glyph glyph-name="afii10093" unicode="&#x44b;" horiz-adv-x="732" 
d="M38 319q1 118 -9 298l181 31q-9 -81 -3 -179q96 1 167 -28q61 -25 94 -68q40 -52 38 -126q-1 -93 -57 -151q-55 -53 -157 -77q-105 -22 -277 -13q22 105 23 313zM192 152q68 -9 109 13q45 24 37 73q-6 37 -35 59q-42 26 -106 17zM518 608l1 -610l182 40q-23 252 15 598z
" />
    <glyph glyph-name="afii10094" unicode="&#x44c;" horiz-adv-x="506" 
d="M38 323q1 118 -9 299l181 31q-9 -82 -3 -179q96 1 167 -27q61 -26 94 -70q40 -52 38 -125q-1 -93 -57 -150q-55 -55 -157 -79q-105 -22 -277 -13q22 105 23 313zM192 156q68 -9 109 13q45 24 37 74q-6 36 -35 58q-42 26 -106 18z" />
    <glyph glyph-name="afii10095" unicode="&#x44d;" horiz-adv-x="479" 
d="M18 527q-8 89 -8 105q149 39 270 7q177 -47 195 -220q10 -110 -48 -215q-35 -60 -87 -104q-53 -48 -120 -74q-90 -30 -190 -10l1 170q90 -12 157 14q68 30 99 92l-203 -17l1 141l222 5q-5 73 -97 81q-41 4 -102 -5q-22 -3 -90 -17v47z" />
    <glyph glyph-name="afii10096" unicode="&#x44e;" horiz-adv-x="775" 
d="M302 541q81 116 214 116q112 0 186 -96q42 -53 58 -109q16 -57 13 -124q-4 -114 -73 -210q-80 -117 -213 -117q-114 0 -188 97q-34 42 -53 104q-8 24 -11 46q-27 -1 -52 -3q-4 -110 5 -204l-178 -33q8 369 34 626l184 -28q-26 -126 -36 -239l43 2q13 92 67 172zM580 430
q-24 57 -71 57q-50 0 -81 -73q-26 -54 -28 -112q-1 -29 5 -54q9 -36 32 -53q26 -22 65 -22q54 0 80 44q23 37 24 93q1 62 -26 120z" />
    <glyph glyph-name="afii10097" unicode="&#x44f;" horiz-adv-x="542" 
d="M349 478q-75 -18 -105 -42q-32 -25 -17 -59q9 -45 116 -43zM519 0l-191 10q12 95 11 174l-26 -1q-75 -122 -166 -228q-53 33 -95 58q-44 22 -69 39q107 90 171 184q-67 23 -102 71q-70 97 16 191q61 67 185 109q115 39 273 53q-17 -253 -7 -660z" />
    <glyph glyph-name="endash" unicode="&#x2013;" horiz-adv-x="618" 
d="M618 438v-146h-618v146h618z" />
    <glyph glyph-name="emdash" unicode="&#x2014;" horiz-adv-x="1201" 
d="M1058 438v-146h-915v146h915z" />
    <glyph glyph-name="quoteleft" unicode="&#x2018;" horiz-adv-x="303" 
d="M385 870q-76 -188 -108 -343l-231 -30l116 356z" />
    <glyph glyph-name="quoteright" unicode="&#x2019;" horiz-adv-x="303" 
d="M385 870q-76 -188 -108 -343l-231 -30l116 356z" />
    <glyph glyph-name="quotesinglbase" unicode="&#x201a;" horiz-adv-x="368" 
d="M339 179l-187 -338h-125l125 338h187z" />
    <glyph glyph-name="quotedblleft" unicode="&#x201c;" horiz-adv-x="362" 
d="M125 679q37 -142 89 -238l-97 -76l-110 238zM298 723q20 -144 65 -240l-108 -68l-85 248z" />
    <glyph glyph-name="quotedblright" unicode="&#x201d;" horiz-adv-x="344" 
d="M340 603l-110 -229l-96 77q55 91 94 230zM184 665l-91 -237l-100 65q46 94 70 235z" />
    <glyph glyph-name="quotedblbase" unicode="&#x201e;" horiz-adv-x="600" 
d="M571 179l-185 -338h-123l123 338h185zM338 179l-186 -338h-125l125 338h186z" />
    <glyph glyph-name="bullet" unicode="&#x2022;" horiz-adv-x="514" 
d="M256 617q48 0 90.5 -16t74 -45t49.5 -66t18 -79q0 -43 -18 -81.5t-49.5 -67t-74 -45.5t-90.5 -17q-49 0 -91 17t-74 45.5t-50.5 67t-18.5 81.5q0 42 18.5 79t50.5 66t74 45t91 16z" />
    <glyph glyph-name="ellipsis" unicode="&#x2026;" horiz-adv-x="834" 
d="M418 -14q-25 0 -47 8.5t-37 22t-23.5 33t-8.5 40.5q0 23 8.5 42t23.5 33.5t37 23t47 8.5q24 0 46 -8.5t38 -23t24 -33.5t8 -42q0 -21 -8 -40.5t-24 -33t-38 -22t-46 -8.5zM687 -14q-24 0 -45.5 8.5t-37.5 22t-25.5 33t-9.5 40.5q0 23 9.5 42t25.5 33.5t37.5 23t45.5 8.5
t46 -8.5t36.5 -23t25 -33.5t10.5 -42q0 -21 -10.5 -40.5t-25 -33t-36.5 -22t-46 -8.5zM153 -14q-24 0 -45.5 8.5t-37.5 22t-24 33t-8 40.5q0 23 8 42t24 33.5t37.5 23t45.5 8.5q26 0 47.5 -8.5t37 -23t24 -33.5t8.5 -42q0 -21 -8.5 -40.5t-24 -33t-37 -22t-47.5 -8.5z" />
    <glyph glyph-name="guilsinglleft" unicode="&#x2039;" horiz-adv-x="314" 
d="M190 623l93 -49l-127 -207l127 -216l-93 -42l-163 258z" />
    <glyph glyph-name="guilsinglright" unicode="&#x203a;" horiz-adv-x="314" 
d="M286 367l-161 -258l-97 42l128 216l-128 207l97 49z" />
    <glyph glyph-name="fraction" unicode="&#x2044;" horiz-adv-x="525" 
d="M527 683q-30 -60 -64.5 -124t-69.5 -125.5t-68.5 -119.5t-65.5 -109q-71 -119 -141 -228l-124 63q36 58 76 122.5t78 128.5t72.5 125.5t67.5 115.5q74 132 140 257z" />
    <glyph glyph-name="fraction" unicode="&#x2215;" horiz-adv-x="525" 
d="M527 683q-30 -60 -64.5 -124t-69.5 -125.5t-68.5 -119.5t-65.5 -109q-71 -119 -141 -228l-124 63q36 58 76 122.5t78 128.5t72.5 125.5t67.5 115.5q74 132 140 257z" />
    <glyph glyph-name="Euro" unicode="&#x20ac;" horiz-adv-x="601" 
d="M523 312h-233q13 -35 32.5 -66t48 -54t65 -37.5t82.5 -14.5q26 0 54 7v-148q-30 -7 -67 -7q-79 0 -146 25.5t-118.5 69t-85.5 102t-50 123.5h-79l13 73h51q-1 8 -1 18v20v18h-63l13 74h62q15 63 49 122.5t85.5 103t117.5 71t146 27.5q23 0 44 -2.5t48 -8.5l-19 -145
q-28 6 -53 6q-49 0 -88.5 -14.5t-68 -37.5t-47.5 -55t-33 -67h270l-10 -74h-273v-16v-21q0 -10 3 -19h261z" />
    <glyph glyph-name="minus" unicode="&#x2212;" horiz-adv-x="600" 
d="M22 342h556v-120h-556v120z" />
    </font>
</defs>
</svg>
